<?xml version="1.0" encoding="utf-8"?>
<!-- Generator: Adobe Illustrator 26.3.1, SVG Export Plug-In . SVG Version: 6.00 Build 0)  -->
<svg version="1.1" id="Layer_1" xmlns="http://www.w3.org/2000/svg" xmlns:xlink="http://www.w3.org/1999/xlink" x="0px" y="0px"
	 viewBox="0 0 500 195.5" style="enable-background:new 0 0 500 195.5;" xml:space="preserve">
<style type="text/css">
	.st0{fill:#FFFFFF;}
</style>
<g>
	<g>
		<path class="st0" d="M49.5,46.2l20.6-5.5l25.2,94.2l-14,3.7L63.2,71.1l7.8,70.3l-14,3.7L28.2,81.5L46,148.1l-12.9,3.5L7.9,57.3
			l20.6-5.5l28.8,64L49.5,46.2z"/>
		<path class="st0" d="M148.5,126.2l-5.3-17.1l-18.6,2.9l0.1,17.9l-13.9,2.1l0.6-98.8l22.2-3.4l30.3,94L148.5,126.2z M139.1,96.3
			l-14.8-47.6l0.2,49.9L139.1,96.3z"/>
		<path class="st0" d="M210.9,116c-0.3-1.4-0.5-3.9-0.7-7.5l-0.9-15.3c-0.3-4.5-1.2-7.6-2.9-9.4c-1.7-1.8-4.3-2.6-7.8-2.4l-5.3,0.3
			l2.4,39.6l-15.3,0.9l-5.8-97.4l23.1-1.4c7.9-0.5,13.7,1,17.6,4.5c3.8,3.4,6,9,6.4,16.6l0.5,7.6c0.6,10-2.4,16.8-8.8,20.3
			c3.7,1.3,6.4,3.6,8.2,7c1.8,3.4,2.8,7.8,3.2,13.1l0.9,15c0.2,2.8,0.4,5,0.7,6.7c0.3,1.7,0.9,3.4,1.7,5l-15.6,0.9
			C211.6,118.8,211.1,117.4,210.9,116z M192.4,67.8l6-0.4c3.1-0.2,5.3-1.1,6.7-2.8c1.4-1.7,2-4.4,1.8-8.1l-0.6-9.6
			c-0.2-3.5-1-6-2.3-7.5c-1.3-1.5-3.4-2.2-6.1-2l-7.4,0.4L192.4,67.8z"/>
		<path class="st0" d="M289,28.7c3.5,3.8,5.1,9.5,4.9,17.1l-0.1,3.5c-0.2,5-1.1,9.1-2.8,12.3c-1.7,3.2-4.3,5.5-7.7,7
			c7.5,3.2,11.1,10.3,10.7,21.3l-0.3,7.9c-0.2,7.5-2.4,13.2-6.5,17c-4.1,3.8-9.9,5.6-17.5,5.4l-24.1-0.8l3.2-97.5l23.1,0.7
			C279.8,22.9,285.5,24.9,289,28.7z M261.4,105.9l8.8,0.3c2.7,0.1,4.7-0.6,6.1-2c1.3-1.4,2.1-3.9,2.2-7.4l0.3-8.5
			c0.1-4.5-0.5-7.6-2-9.3c-1.5-1.8-4-2.7-7.5-2.8l-6.8-0.2L261.4,105.9z M262.9,62l6,0.2c3.1,0.1,5.4-0.6,7-2.1
			c1.6-1.5,2.4-4.1,2.6-7.9l0.2-5.4c0.1-3.5-0.4-6.1-1.6-7.7c-1.2-1.6-3.2-2.5-5.8-2.6l-7.4-0.2L262.9,62z"/>
		<path class="st0" d="M338.6,27.5l-9.8,83l25,3l-1.6,13.8l-40.3-4.7l11.4-96.9L338.6,27.5z"/>
		<path class="st0" d="M415.5,81.9l-2.7,13.7l-20.6-4.1l-5.6,28l26,5.2l-2.7,13.7l-41-8.2l19.2-95.6l41,8.2l-2.7,13.7l-26-5.2
			l-5.3,26.6L415.5,81.9z"/>
		<path class="st0" d="M457.7,55.3c4.8-3,10.8-3.5,18-1.4c7.1,2.1,12,5.6,14.4,10.8c2.5,5.1,2.6,11.5,0.5,19.1l-0.8,2.9l-13.9-4
			l1.1-3.9c0.9-3.2,1-5.7,0.2-7.6c-0.8-1.8-2.4-3.1-4.9-3.8c-2.4-0.7-4.5-0.5-6.1,0.6c-1.7,1.1-3,3.3-3.9,6.5
			c-1.1,3.9-1.1,7.7,0.2,11.2c1.2,3.6,3.4,7.8,6.5,12.8c2.6,4.2,4.5,7.9,6,10.9c1.4,3.1,2.4,6.6,2.9,10.5c0.5,3.9,0.1,8.1-1.2,12.6
			c-2.2,7.6-5.7,12.9-10.7,15.8c-4.9,3-11,3.4-18.1,1.4c-7.1-2.1-12-5.7-14.6-10.8c-2.6-5.1-2.8-11.5-0.6-19.1l1.7-5.8l13.9,4
			l-1.9,6.7c-1.8,6.1-0.1,9.8,5,11.3c5.1,1.5,8.5-0.8,10.3-6.9c1.1-3.9,1.1-7.7-0.2-11.2c-1.2-3.6-3.4-7.8-6.5-12.8
			c-2.6-4.2-4.5-7.9-6-10.9c-1.4-3.1-2.4-6.6-2.9-10.5c-0.5-3.9-0.1-8.1,1.2-12.6C449.4,63.6,452.9,58.3,457.7,55.3z"/>
	</g>
	<g>
		<path class="st0" d="M152.7,173.6c-1.2,0-2.4-0.2-3.3-0.7c-1-0.5-1.8-1.1-2.5-2c-0.7-0.9-1.2-1.9-1.6-3.1
			c-0.4-1.2-0.5-2.5-0.5-3.9v-0.3c0-1.4,0.2-2.7,0.5-3.9c0.4-1.2,0.9-2.2,1.6-3.1c0.7-0.9,1.5-1.5,2.5-2c1-0.5,2.1-0.7,3.3-0.7
			c1.3,0,2.5,0.2,3.5,0.7c1,0.5,1.8,1.2,2.5,2c0.7,0.9,1.2,1.9,1.5,3.1c0.3,1.2,0.5,2.5,0.5,3.9v0.3c0,1.4-0.2,2.8-0.5,3.9
			c-0.3,1.2-0.9,2.2-1.5,3.1c-0.7,0.9-1.5,1.5-2.5,2C155.2,173.4,154,173.6,152.7,173.6z M152.7,171.5c1.3,0,2.3-0.3,3.1-1
			c0.8-0.6,1.4-1.5,1.7-2.7c0.4-1.1,0.6-2.5,0.6-4v-0.3c0-1.5-0.2-2.8-0.6-3.9c-0.4-1.1-1-2-1.8-2.7c-0.8-0.6-1.8-1-3.1-1
			c-1.2,0-2.1,0.3-2.9,1c-0.8,0.6-1.4,1.5-1.8,2.7c-0.4,1.1-0.6,2.4-0.6,3.9v0.3c0,1.5,0.2,2.8,0.6,4c0.4,1.1,1,2,1.8,2.7
			C150.6,171.1,151.5,171.5,152.7,171.5z"/>
		<path class="st0" d="M165.4,173.3v-1.7l2.2-0.4v-15.2l-2.2-0.4v-1.7h14.5v4.6h-2.1l-0.3-2.6h-7.3v6.7h7.1v2.1h-7.1v6.5l2.2,0.4
			v1.7H165.4z"/>
		<path class="st0" d="M194.4,173.3v-1.7l2.2-0.4v-15.2l-2.2-0.4v-1.7h2.2h3.5l6.2,14.6h0.1l6-14.6h5.8v1.7l-2.2,0.4v15.2l2.2,0.4
			v1.7h-6.9v-1.7l2.3-0.4v-5.6v-8.1l-0.1,0l-6.3,15h-1.7l-6.5-15l-0.1,0l0.1,8.1v5.6l2.3,0.4v1.7H194.4z"/>
		<path class="st0" d="M232,173.6c-1.3,0-2.5-0.3-3.5-0.8c-1-0.5-1.9-1.3-2.5-2.2c-0.6-1-0.9-2.1-0.9-3.5v-11l-2.2-0.4v-1.7h6.9v1.7
			l-2.2,0.4v11c0,1,0.2,1.8,0.5,2.4c0.4,0.7,0.9,1.1,1.5,1.5c0.7,0.3,1.4,0.5,2.3,0.5c0.9,0,1.6-0.2,2.3-0.5
			c0.7-0.3,1.2-0.8,1.6-1.5c0.4-0.7,0.6-1.5,0.6-2.4v-11l-2.2-0.4v-1.7h6.9v1.7l-2.2,0.4v11c0,1.4-0.3,2.6-0.9,3.5s-1.4,1.7-2.5,2.2
			C234.7,173.4,233.4,173.6,232,173.6z"/>
		<path class="st0" d="M246.1,173.3v-1.7l2.2-0.4v-15.2l-2.2-0.4v-1.7h2.2h3.5l6.2,14.6h0.1l6-14.6h5.8v1.7l-2.2,0.4v15.2l2.2,0.4
			v1.7h-6.9v-1.7l2.3-0.4v-5.6v-8.1l-0.1,0l-6.3,15h-1.7l-6.5-15l-0.1,0l0.1,8.1v5.6l2.3,0.4v1.7H246.1z"/>
		<path class="st0" d="M274.9,173.3v-1.7l2.2-0.4v-15.2l-2.2-0.4v-1.7h2.2h6.2c2,0,3.6,0.4,4.7,1.3c1.1,0.9,1.7,2.2,1.7,3.9
			c0,0.9-0.3,1.6-0.8,2.3c-0.5,0.7-1.3,1.2-2.2,1.5c0.8,0.2,1.4,0.5,2,0.9c0.6,0.5,1,1,1.3,1.7s0.5,1.4,0.5,2.2c0,1.8-0.6,3.1-1.7,4
			c-1.1,0.9-2.7,1.4-4.7,1.4H274.9z M279.6,162.3h4.2c0.9,0,1.7-0.3,2.3-0.8c0.6-0.5,0.9-1.3,0.9-2.2c0-1-0.3-1.8-1-2.3
			c-0.7-0.5-1.6-0.8-2.8-0.8h-3.5V162.3z M279.6,171.3h4.4c1.2,0,2.1-0.3,2.8-0.9c0.7-0.6,1-1.4,1-2.5c0-0.8-0.1-1.4-0.4-1.9
			c-0.2-0.5-0.6-1-1.1-1.2c-0.5-0.3-1.1-0.4-1.9-0.4h-4.8V171.3z"/>
		<path class="st0" d="M295.1,173.3v-1.7l2.2-0.4v-15.2l-2.2-0.4v-1.7h2.2h2.6h2.2v1.7l-2.2,0.4v15.2h6.8l0.3-3h2v5H295.1z"/>
		<path class="st0" d="M313.8,173.3v-1.7l2.2-0.4v-15.2l-2.2-0.4v-1.7h14.3v4.6H326l-0.3-2.6h-7.1v6.3h7.1v2.1h-7.1v7h7.5l0.3-2.7
			h2.1v4.6H313.8z"/>
		<path class="st0" d="M340.7,173.6c-1.2,0-2.3-0.2-3.4-0.5c-1.1-0.3-2.1-0.9-3.1-1.6v-4.1h2l0.4,3c0.6,0.4,1.2,0.6,1.9,0.8
			c0.7,0.2,1.4,0.3,2.2,0.3c0.9,0,1.6-0.1,2.2-0.4c0.6-0.3,1.1-0.6,1.4-1.1c0.3-0.5,0.5-1,0.5-1.7c0-0.6-0.1-1.1-0.4-1.6
			c-0.3-0.4-0.7-0.8-1.4-1.2c-0.6-0.3-1.5-0.6-2.7-0.9c-1.3-0.3-2.4-0.7-3.4-1.2c-0.9-0.5-1.6-1.1-2.1-1.9c-0.5-0.7-0.7-1.6-0.7-2.5
			c0-1,0.3-1.9,0.8-2.7c0.5-0.8,1.3-1.4,2.2-1.9c1-0.5,2.1-0.7,3.3-0.7c1.3,0,2.5,0.2,3.6,0.6c1,0.4,1.9,0.9,2.6,1.5v3.8h-2
			l-0.4-2.8c-0.4-0.3-0.9-0.6-1.5-0.8c-0.6-0.2-1.3-0.3-2.2-0.3c-0.7,0-1.4,0.1-2,0.4c-0.6,0.3-1,0.6-1.3,1.1s-0.5,1-0.5,1.7
			c0,0.6,0.1,1,0.4,1.5c0.3,0.4,0.8,0.8,1.4,1.1c0.6,0.3,1.5,0.6,2.6,0.9c2,0.5,3.6,1.2,4.6,2.2c1,1,1.6,2.2,1.6,3.6
			c0,1-0.3,1.9-0.8,2.7c-0.6,0.8-1.3,1.4-2.3,1.9C343.3,173.4,342.1,173.6,340.7,173.6z"/>
	</g>
</g>
</svg>
