<?xml version="1.0" standalone="no"?>
<!DOCTYPE svg PUBLIC "-//W3C//DTD SVG 20010904//EN"
 "http://www.w3.org/TR/2001/REC-SVG-20010904/DTD/svg10.dtd">
<svg version="1.0" xmlns="http://www.w3.org/2000/svg"
 width="1372.000000pt" height="408.000000pt" viewBox="0 0 1372.000000 408.000000"
 preserveAspectRatio="xMidYMid meet">

<g transform="translate(0.000000,408.000000) scale(0.100000,-0.100000)"
fill="#000000" stroke="none">
<path d="M8387 4060 c-21 -6 -60 -19 -86 -31 l-48 -20 20 -40 c59 -119 -12
-397 -239 -934 -231 -546 -332 -770 -365 -803 -47 -47 -146 -93 -215 -99 -116
-10 -122 24 -44 270 79 251 78 342 -8 383 -58 27 -167 14 -259 -31 -94 -47
-227 -172 -314 -296 -35 -50 -69 -98 -76 -107 -7 -10 0 15 16 53 39 97 61 191
61 259 0 50 -4 61 -28 86 -41 41 -120 55 -228 40 -46 -6 -90 -13 -97 -16 -7
-2 -12 -27 -13 -62 -1 -35 -14 -93 -34 -152 -44 -129 -205 -530 -245 -610 -78
-155 -268 -410 -368 -492 -232 -192 -289 -8 -141 453 78 242 210 536 310 692
24 37 44 76 44 87 0 58 -144 110 -272 96 -74 -7 -96 -21 -145 -86 -36 -49 -37
-49 -51 -27 -61 92 -123 126 -241 134 -229 15 -432 -75 -642 -286 -129 -130
-231 -280 -328 -482 -52 -110 -89 -171 -155 -255 -188 -242 -330 -368 -409
-362 -30 2 -45 10 -61 31 -19 25 -21 42 -20 140 1 155 43 364 145 722 119 415
376 1129 486 1349 l35 69 -22 17 c-99 75 -332 78 -485 6 -181 -85 -522 -616
-976 -1519 l-159 -317 0 58 c0 65 31 261 119 748 105 581 135 855 103 946 -38
108 -172 123 -354 40 l-63 -29 -18 -69 c-42 -163 -173 -446 -325 -695 -388
-642 -939 -1256 -1412 -1574 -128 -86 -328 -181 -445 -211 -87 -22 -115 -25
-212 -21 l-112 4 32 -44 c50 -70 166 -175 232 -210 320 -169 749 0 1207 475
332 345 672 852 923 1376 45 94 87 182 93 196 28 58 -5 -180 -148 -1065 -112
-694 -106 -644 -82 -697 26 -60 76 -96 148 -110 84 -15 157 5 195 52 15 19
125 215 244 435 563 1037 779 1414 892 1553 80 98 67 55 -107 -362 -75 -182
-162 -398 -193 -481 -247 -671 -271 -1032 -77 -1187 84 -66 229 -87 335 -47
135 50 315 207 436 379 l64 91 7 -73 c25 -241 140 -358 353 -358 88 0 157 20
254 71 118 63 234 164 336 292 20 26 41 47 45 47 4 0 10 -28 13 -63 9 -98 42
-173 101 -232 59 -59 103 -75 200 -75 125 0 253 67 399 208 71 70 77 73 77 49
0 -41 39 -135 71 -172 39 -44 97 -65 188 -68 l75 -2 58 160 c87 237 240 617
320 789 137 299 261 483 319 474 34 -4 35 -31 3 -150 -66 -251 -81 -379 -50
-451 17 -41 64 -81 113 -98 56 -19 169 -17 230 4 74 26 185 108 246 182 28 35
53 62 55 60 2 -1 -6 -27 -18 -56 -93 -244 -92 -411 3 -525 20 -24 25 -43 29
-109 10 -173 114 -276 313 -312 270 -48 534 97 741 407 74 112 145 256 190
390 l32 95 113 42 c62 24 141 59 176 78 35 19 65 35 67 35 2 0 -11 -47 -30
-105 -18 -58 -44 -156 -59 -219 -83 -373 -42 -591 127 -667 46 -21 68 -24 168
-24 93 0 128 5 185 23 189 63 364 208 501 416 l39 59 8 -34 c38 -159 80 -244
156 -319 101 -98 227 -143 401 -144 160 0 292 47 460 165 95 66 310 281 424
424 79 98 291 409 340 496 l18 34 22 -61 c21 -58 41 -97 80 -157 l17 -25 -70
-42 c-159 -92 -286 -204 -356 -315 -150 -233 -106 -467 101 -545 161 -60 346
-48 498 33 186 99 323 350 332 612 l4 110 69 12 c135 23 262 33 419 33 234 0
380 -30 483 -100 24 -16 47 -26 51 -24 4 3 19 41 33 85 61 195 12 326 -138
366 -76 21 -413 29 -576 13 -108 -10 -284 -40 -436 -76 -16 -4 -28 9 -60 63
-38 64 -40 72 -40 148 0 62 5 89 21 120 25 48 73 83 125 91 32 5 39 11 44 35
17 76 -23 158 -95 199 -40 22 -57 25 -150 25 -97 0 -110 -2 -172 -32 -99 -47
-148 -98 -209 -216 -113 -221 -303 -507 -466 -704 -105 -126 -300 -317 -381
-372 -224 -151 -434 -142 -519 22 -24 45 -27 64 -28 147 l0 95 76 7 c220 20
412 104 554 243 266 261 281 663 29 786 -66 32 -228 39 -322 14 -280 -72 -517
-314 -663 -677 -100 -247 -214 -435 -343 -564 -114 -113 -210 -153 -288 -121
-53 22 -71 56 -76 145 -10 197 95 514 438 1312 310 724 371 905 340 1021 -17
61 -73 113 -141 129 -56 14 -187 8 -251 -10 -38 -11 -38 -11 -22 -36 25 -37
13 -136 -32 -274 -52 -162 -81 -236 -257 -655 -85 -203 -185 -445 -222 -537
l-67 -168 -66 -44 c-70 -46 -149 -82 -266 -122 -38 -13 -70 -24 -70 -24 -1 0
-1 71 -1 158 0 120 -4 170 -18 213 -22 74 -72 146 -125 184 -39 26 -53 30
-128 34 -134 5 -259 -43 -386 -150 l-48 -40 66 138 c152 318 255 565 322 773
56 174 75 273 70 379 -3 78 -6 92 -31 124 -15 21 -42 45 -60 54 -38 19 -173
27 -230 13z m166 -1538 c31 -34 42 -114 29 -210 -15 -111 -47 -232 -63 -243
-8 -4 -45 -16 -84 -25 -124 -30 -333 -102 -430 -148 -52 -25 -95 -43 -95 -40
0 12 95 192 146 275 117 194 241 331 345 382 63 32 128 36 152 9z m-3224 -43
c27 -30 43 -111 35 -183 -8 -78 -93 -329 -138 -409 -104 -187 -285 -390 -397
-446 -112 -56 -186 -32 -208 67 -28 133 69 417 225 655 84 129 228 276 305
312 71 33 149 34 178 4z m5705 1 c67 -25 74 -149 15 -268 -43 -89 -144 -189
-232 -231 -68 -33 -163 -59 -173 -48 -10 10 42 150 94 252 56 112 107 188 164
241 67 64 86 72 132 54z m-2594 -655 c0 -14 -97 -197 -137 -259 -55 -86 -137
-172 -185 -197 -54 -27 -110 -25 -147 7 -28 23 -31 31 -31 82 0 72 43 168 92
205 46 36 168 92 284 132 99 34 124 40 124 30z m3806 -215 c-7 -78 -51 -176
-99 -216 -18 -15 -56 -38 -85 -52 -44 -20 -65 -23 -119 -20 -60 4 -68 7 -99
41 -94 102 12 219 302 331 l89 34 8 -26 c4 -15 6 -56 3 -92z"/>
<path d="M4219 507 c-108 -41 -169 -147 -156 -272 7 -66 35 -123 83 -165 54
-47 98 -62 180 -62 82 0 142 22 190 70 53 53 69 97 69 193 0 78 -3 90 -30 135
-19 30 -49 60 -79 78 -42 26 -59 30 -134 33 -56 2 -100 -2 -123 -10z m198 -88
c45 -28 76 -91 76 -154 0 -89 -53 -160 -135 -179 -65 -15 -149 28 -184 96 -8
15 -14 53 -14 85 0 145 137 226 257 152z"/>
<path d="M9965 500 c-50 -24 -75 -65 -75 -120 0 -78 39 -118 146 -150 88 -26
114 -81 60 -127 -36 -30 -83 -30 -130 2 l-37 25 -30 -21 c-40 -28 -34 -48 23
-77 95 -49 228 -25 271 48 11 17 17 50 17 85 0 48 -4 60 -28 84 -15 15 -54 37
-87 49 -84 30 -109 45 -113 66 -14 72 71 112 144 67 l32 -19 26 27 c14 15 26
30 26 35 0 4 -19 16 -42 26 -58 26 -150 26 -203 0z"/>
<path d="M4860 265 l0 -245 45 0 45 0 0 105 0 105 105 0 105 0 0 35 0 35 -105
0 -105 0 0 65 0 64 113 3 112 3 3 38 3 37 -160 0 -161 0 0 -245z"/>
<path d="M5800 265 l0 -245 40 0 40 0 2 190 3 191 70 -188 71 -188 34 0 34 0
71 188 70 188 3 -191 2 -190 45 0 45 0 0 245 0 246 -72 -3 -71 -3 -60 -168
c-33 -92 -63 -164 -67 -160 -4 4 -34 81 -66 170 l-59 163 -67 0 -68 0 0 -245z"/>
<path d="M6620 323 c0 -177 2 -190 23 -228 49 -87 186 -117 281 -61 76 44 86
79 86 294 l0 182 -40 0 -40 0 0 -147 c-1 -169 -9 -216 -43 -251 -29 -28 -90
-35 -129 -14 -48 26 -53 45 -56 235 l-4 177 -39 0 -39 0 0 -187z"/>
<path d="M7300 265 l0 -245 40 0 40 0 0 193 c0 120 4 186 10 176 5 -8 36 -87
69 -175 32 -87 62 -167 66 -176 5 -12 18 -18 39 -18 l32 0 69 182 c37 101 72
187 76 193 5 5 9 -76 9 -183 l0 -192 40 0 40 0 0 245 0 245 -69 0 -68 0 -58
-162 c-32 -90 -61 -167 -65 -171 -4 -4 -35 69 -69 163 l-63 170 -69 0 -69 0 0
-245z"/>
<path d="M8120 265 l0 -245 118 0 c64 0 134 5 154 10 72 20 114 106 87 176
-12 29 -30 46 -77 71 -2 1 11 15 30 31 29 27 33 36 33 80 0 95 -50 122 -225
122 l-120 0 0 -245z m234 154 c61 -48 13 -109 -85 -109 l-59 0 0 65 0 65 59 0
c44 0 65 -5 85 -21z m17 -200 c22 -11 33 -49 24 -79 -9 -29 -63 -50 -130 -50
l-55 0 0 68 c0 38 3 72 8 76 9 10 129 -2 153 -15z"/>
<path d="M8760 265 l0 -245 145 0 145 0 0 40 0 40 -105 0 -105 0 0 205 0 205
-40 0 -40 0 0 -245z"/>
<path d="M9290 265 l0 -245 170 0 170 0 0 40 0 40 -125 0 -126 0 3 68 3 67
113 3 112 3 0 34 0 35 -115 0 -115 0 0 60 0 60 120 0 120 0 0 40 0 40 -165 0
-165 0 0 -245z"/>
</g>
</svg>
